<?xml version="1.0" encoding="UTF-8"?>
<svg id="_레이어_2" data-name="레이어_2" xmlns="http://www.w3.org/2000/svg" viewBox="0 0 2170.31 411.64">
  <defs>
    <style>
      .cls-1 {
        fill: #fff;
      }
    </style>
  </defs>
  <g id="_레이어_1-2" data-name="레이어_1">
    <g>
      <g>
        <path class="cls-1" d="M71.37,33.01l5.01-2.51c2.4.11,5.06.37,7.98.78,2.92.42,5.11.89,6.57,1.41,1.15.42,1.72,1.31,1.72,2.66,0,1.57-.39,3.03-1.17,4.38-.78,1.36-1.54,2.24-2.27,2.66-.94-.1-2.32-.18-4.14-.24-1.83-.05-3.71-.1-5.63-.16-1.93-.05-3.47-.08-4.62-.08-1.25,0-3.55.03-6.89.08-3.34.05-7.17.13-11.5.24-4.33.11-8.63.21-12.91.31-4.28.11-8.09.21-11.42.31-3.34.11-5.58.21-6.73.32-1.56.11-3.55.37-5.95.78-2.4.42-4.33.89-5.79,1.41-2.4-1.04-4.77-2.37-7.12-3.99-2.35-1.61-4.35-3.21-6.02-4.77-.52-.52-.63-1.1-.31-1.72l1.1-2.03c2.4.42,5.06.73,7.98.94,2.92.21,5.32.32,7.2.32,1.36,0,3.86-.03,7.51-.08,3.65-.05,7.85-.1,12.59-.16,4.75-.05,9.52-.13,14.32-.24,4.8-.1,9.05-.21,12.75-.31,3.7-.1,6.28-.21,7.74-.31ZM81.22,73.69c0,5.22-1.49,9.76-4.46,13.61-2.97,3.86-6.94,6.86-11.89,9-4.96,2.14-10.46,3.21-16.51,3.21s-11.42-1.07-16.43-3.21c-5-2.14-9-5.14-11.97-9-2.97-3.85-4.46-8.39-4.46-13.61s1.49-9.72,4.46-13.53c2.97-3.81,6.96-6.75,11.97-8.84,5.01-2.08,10.49-3.13,16.43-3.13s11.55,1.04,16.51,3.13c4.95,2.09,8.92,5.04,11.89,8.84,2.97,3.81,4.46,8.32,4.46,13.53ZM23.18,11.27l1.25-1.57c6.99,1.15,13.87,1.93,20.65,2.35,6.78.42,12.78.63,17.99.63,1.46,0,2.4.47,2.81,1.41.42.73.65,1.64.71,2.74.05,1.1,0,2.14-.16,3.13-.16.99-.49,1.75-1.02,2.27-.31.42-.7.68-1.17.78-.47.11-.96.16-1.49.16-2.5,0-5.34.03-8.52.08-3.18.05-6.31.13-9.39.23-3.07.11-5.76.26-8.06.47-1.67.21-2.87,0-3.6-.63-1.67-1.04-3.42-2.5-5.24-4.38-1.83-1.88-3.42-3.81-4.77-5.79-.31-.73-.31-1.35,0-1.87ZM66.67,73.69c0-3.34-.81-6.2-2.43-8.6s-3.81-4.22-6.57-5.48c-2.77-1.25-5.87-1.88-9.31-1.88s-6.39.62-9.15,1.88c-2.77,1.25-4.96,3.07-6.57,5.48-1.62,2.4-2.43,5.27-2.43,8.6s.81,6.18,2.43,8.53c1.61,2.35,3.8,4.17,6.57,5.48,2.76,1.31,5.81,1.96,9.15,1.96s6.54-.65,9.31-1.96c2.76-1.3,4.95-3.13,6.57-5.48,1.62-2.35,2.43-5.19,2.43-8.53ZM57.91,128.14h-15.49v-8.92c-1.25-1.04-2.87-2.03-4.85-2.97-1.98-.94-4.02-1.67-6.1-2.19l.94-4.22c.21-.83.88-1.25,2.03-1.25,2.08,0,4.46.08,7.12.24,2.66.16,5.27.37,7.82.62,2.55.26,4.62.55,6.18.86,1.77.52,2.66,1.72,2.66,3.6l-.31,7.67v6.57ZM61.82,137.52l-4.06,9.08c-5.63,0-9.6-1.07-11.89-3.21-2.3-2.14-3.44-5.5-3.44-10.09v-9.7h15.49v10.01c0,2.61,1.3,3.91,3.91,3.91ZM123.31,146.13l-65.55.47,3.91-9.08h21.2c4.23,0,8.24-.05,12.05-.16,3.81-.11,6.81-.21,9-.31l5.79-3.13c2.5,0,5.34.1,8.53.31,3.18.21,5.61.52,7.27.94,1.67.42,2.51,1.35,2.51,2.82,0,1.88-.24,3.44-.7,4.69-.47,1.25-.97,2.14-1.49,2.66-.63.52-1.46.78-2.51.78ZM110.79,114.53h-8.6c-.21-1.57-.42-3.65-.63-6.26-.21-2.61-.37-5.4-.47-8.37-.11-2.97-.18-5.87-.24-8.68-.05-2.81-.08-5.16-.08-7.04V14.39c-1.25-1.67-3-3.29-5.24-4.85-2.24-1.57-4.72-2.82-7.43-3.76l1.57-4.85c.21-.63.94-.94,2.19-.94,2.19.11,4.72.39,7.59.86,2.86.47,5.66,1.02,8.37,1.64s4.9,1.36,6.57,2.19c1.46.53,2.14,1.78,2.03,3.76l-.47,8.76v62.27c0,3.86-.21,7.95-.63,12.28-.42,4.33-.99,8.48-1.72,12.44-.73,3.97-1.67,7.41-2.82,10.33ZM141.46,68.84l-28.94.62v-9.08l12.98-.62,5.01-3.13c2.3-.11,4.85-.08,7.67.08,2.81.16,4.9.39,6.26.7,1.88.42,2.87,1.46,2.97,3.13.1,1.57-.05,3-.47,4.3-.42,1.31-.89,2.22-1.41,2.74-.42.42-1.02.73-1.8.94-.78.21-1.54.32-2.27.32Z"/>
        <path class="cls-1" d="M268.66,60.71l6.26-2.66c2.08,0,4.33.16,6.73.47,2.4.32,4.72.66,6.96,1.02,2.24.37,3.99.76,5.24,1.17,1.57.52,2.35,1.56,2.35,3.13,0,1.77-.47,3.34-1.41,4.69-.94,1.36-1.88,2.24-2.82,2.66-1.25-.21-3.1-.37-5.55-.47-2.45-.1-4.9-.18-7.35-.23-2.45-.05-4.51-.08-6.18-.08-1.78,0-4.93.03-9.47.08-4.54.05-9.83.11-15.88.16-6.05.05-12.39.11-19.01.16-6.62.05-12.91.13-18.85.24-5.94.11-11.08.21-15.41.31-4.33.11-7.23.21-8.68.31-1.36.11-3.1.34-5.24.7-2.14.37-4.28.76-6.41,1.17-2.14.42-3.89.84-5.24,1.25-3.02-1.04-6.02-2.48-9-4.3-2.97-1.82-5.5-3.68-7.59-5.55-.62-.52-.78-1.15-.47-1.88l1.25-2.51c2.92.53,6.13.94,9.62,1.25,3.49.31,6.6.47,9.31.47h7.9c3.8,0,8.37-.03,13.69-.08,5.32-.05,11.03-.11,17.13-.16,6.1-.05,12.23-.13,18.38-.23,6.15-.11,11.94-.21,17.37-.32,5.42-.1,10.12-.23,14.08-.39,3.96-.16,6.73-.28,8.29-.39ZM252.54,98.1v9.54h-20.65c-4.17,0-8.27.05-12.28.16-4.01.11-7.56.18-10.64.24-3.08.05-5.35.13-6.81.24-1.88.11-4.33.39-7.35.86-3.03.47-5.42,1.07-7.2,1.8-2.72-1.04-5.37-2.35-7.98-3.91-2.61-1.57-4.91-3.13-6.89-4.7-.73-.52-.94-1.2-.62-2.03l1.41-2.35c2.61.42,5.45.73,8.53.94,3.07.21,5.81.31,8.21.31,1.36,0,3.57-.03,6.65-.08,3.08-.05,6.7-.1,10.87-.16,4.17-.05,8.53-.1,13.07-.16,4.54-.05,8.92-.13,13.14-.24,4.23-.1,7.98-.18,11.27-.23,3.29-.05,5.71-.13,7.28-.24ZM253.48,12.52v9.7h-20.58c-4.12,0-8.16.05-12.12.16-3.97.11-7.49.18-10.56.24-3.08.05-5.34.13-6.81.24-1.98.11-4.46.45-7.43,1.02-2.97.58-5.45,1.17-7.43,1.8-2.61-1.15-5.24-2.56-7.9-4.23-2.66-1.66-4.93-3.34-6.81-5-.73-.63-.94-1.31-.62-2.03l1.1-2.35c2.71.42,5.63.76,8.76,1.02s5.89.39,8.3.39h6.81c3.07,0,6.7-.03,10.87-.08,4.17-.05,8.47-.1,12.91-.16,4.43-.05,8.76-.13,12.98-.24,4.22-.1,7.98-.18,11.27-.23,3.29-.05,5.71-.13,7.28-.24ZM227.82,103.57h-9.86c-.21-1.77-.39-3.96-.55-6.57s-.29-5.21-.39-7.82c-.11-2.6-.16-4.85-.16-6.73v-15.96h15.02v12.2c0,2.4-.18,5.16-.55,8.29-.37,3.13-.84,6.16-1.41,9.08-.57,2.92-1.28,5.42-2.11,7.51ZM254.1,66.18l-5.79-.47c-.84-.1-1.2-.94-1.1-2.5.94-3.76,1.74-8.11,2.43-13.06.67-4.95,1.2-9.91,1.56-14.87.37-4.95.55-9.36.55-13.22l9.08-2.97,8.14,3.29c-.42,4.38-1.25,9.13-2.51,14.24-1.25,5.11-2.74,10.14-4.46,15.1-1.72,4.96-3.52,9.36-5.4,13.22-.52.94-1.36,1.36-2.51,1.25ZM266.15,108.27l-15.33-.63,1.41-9.54,5-2.35c.94-.52,1.88-.52,2.82,0,1.15.52,2.53,1.25,4.15,2.19,1.61.94,2.79,1.72,3.52,2.35.62.52.73,1.25.31,2.19l-1.88,5.79ZM261.46,152.39h-9.08c-.32-1.67-.58-3.73-.78-6.18-.21-2.45-.39-4.96-.55-7.51-.16-2.56-.24-4.72-.24-6.49v-24.72h15.33l-.47,21.12c0,2.3-.18,4.93-.55,7.9-.37,2.97-.86,5.87-1.49,8.68-.63,2.81-1.36,5.21-2.19,7.2ZM268.97,22.53l-17.21-.47,1.25-9.54,6.57-2.97c1.04-.52,2.03-.52,2.97,0,1.25.52,2.79,1.25,4.62,2.19,1.82.94,3.21,1.72,4.14,2.35.73.53.83,1.25.31,2.19l-2.66,6.26Z"/>
      </g>
      <g>
        <path class="cls-1" d="M9.06,356.68l-4.11-3.33c-.66-.78-.59-1.69.19-2.74,7.95-8.47,14.96-17.37,21.02-26.69,6.06-9.32,11.02-18.71,14.86-28.16,3.85-9.45,6.42-18.54,7.73-27.28l25.62-4.5c.13,1.96,0,3.65-.39,5.09-1.83,9.91-5.45,20.04-10.85,30.41-5.41,10.36-12.42,20.44-21.02,30.21-8.6,9.78-18.65,18.77-30.12,26.99-1.17.78-2.15.78-2.93,0ZM74.38,263.98l-25.62,4.5c-.78-1.56-2.12-3.22-4.01-4.98-1.89-1.76-4.01-3.23-6.36-4.4l3.13-6.26c.39-.65,1.37-.91,2.93-.78,2.86.26,6.03.81,9.48,1.66,3.45.85,6.75,1.76,9.88,2.74s5.54,1.93,7.24,2.84c2.22,1.17,3.33,2.74,3.33,4.69ZM78.29,320.89l-1.57,1.57-28.94-16.82,7.63-11.93,22.88,27.18ZM79.27,347.1l-31.49-41.46,30.51,15.25,8.41,3.52c1.3,2.61,2.67,5.61,4.11,9,1.43,3.39,2.47,6.13,3.13,8.21,1.04,3.52,1.1,6,.19,7.43-.91,1.44-2.41,2.48-4.5,3.13-2.08.65-3.91.59-5.48-.2-.78-.39-1.63-1.08-2.54-2.05-.91-.98-1.7-1.92-2.35-2.84ZM92.17,294.1l8.41,12.52c-1.57.13-3.46.46-5.67.98-2.22.53-4.17,1.11-5.87,1.76-2.61-1.56-5.09-3.29-7.43-5.18-2.35-1.89-4.43-3.81-6.26-5.77-.65-.91-.78-1.76-.39-2.54l1.76-2.54c2.22.26,4.72.46,7.53.59,2.8.13,5.44.19,7.92.19ZM116.81,293.12v12.71c-2.48,0-5.41.07-8.8.19-3.39.13-5.87.33-7.43.59l-8.41-12.52c1.95,0,4.47-.03,7.53-.1,3.06-.06,6.13-.16,9.19-.29,3.06-.13,5.7-.32,7.92-.59ZM121.7,397.95h-11.54c-.26-1.83-.55-4.47-.88-7.92-.33-3.45-.62-7.17-.88-11.15-.26-3.98-.42-7.73-.49-11.24-.07-3.52-.1-6.39-.1-8.61v-106.98c-1.17-1.96-2.97-3.78-5.38-5.48-2.42-1.69-5.05-3.13-7.92-4.3l2.35-6.65c.39-.91,1.43-1.37,3.13-1.37,2.74.13,5.8.49,9.19,1.08,3.39.59,6.68,1.31,9.88,2.15,3.19.85,5.7,1.73,7.53,2.64,1.69.91,2.54,2.54,2.54,4.89l-.59,9.97v97.79c0,4.04-.26,8.83-.78,14.38-.52,5.54-1.31,11.08-2.35,16.62-1.05,5.54-2.28,10.27-3.72,14.18ZM158.28,409.68h-12.13c-.39-1.83-.72-4.56-.98-8.21-.26-3.65-.52-7.7-.78-12.13s-.46-8.6-.59-12.52c-.13-3.91-.19-6.97-.19-9.19v-128.49c-1.17-2.08-3.1-4.07-5.77-5.96-2.67-1.89-5.51-3.43-8.51-4.6l2.35-6.65c.13-.52.46-.91.98-1.17.52-.26,1.24-.39,2.15-.39,2.74.13,5.97.49,9.68,1.08,3.72.59,7.3,1.34,10.76,2.25,3.45.91,6.23,1.89,8.31,2.93,1.95.78,2.86,2.48,2.74,5.09l-.78,10.76v118.52c0,4.17-.29,9.26-.88,15.25-.59,6-1.4,11.99-2.44,17.99s-2.35,11.15-3.91,15.45Z"/>
        <path class="cls-1" d="M199.35,366.07l-3.72-3.32c-.91-.78-1.04-1.69-.39-2.74,9.39-8.34,17.8-17.53,25.23-27.58,7.43-10.04,13.75-20.31,18.97-30.8,5.21-10.49,9.06-20.57,11.54-30.22l12.32-4.3,12.13,3.72c-1.96,8.48-5.12,17.11-9.49,25.91-4.37,8.8-9.78,17.37-16.23,25.72-6.45,8.35-13.66,16.2-21.61,23.56-7.95,7.37-16.56,13.86-25.82,19.46-1.17.91-2.15,1.11-2.93.59ZM256.45,258.51v12.91h-6.06c-2.48,0-5.05.04-7.72.1-2.67.07-5.12.13-7.33.19-2.22.07-3.78.17-4.7.29-2.09.13-4.7.49-7.82,1.08-3.13.59-5.74,1.21-7.82,1.86-2.74-1.3-5.51-2.96-8.31-4.99-2.81-2.02-5.25-4.01-7.33-5.97-.66-.78-.85-1.63-.59-2.54l1.57-2.74c2.74.26,5.74.46,9,.59,3.26.13,6.13.19,8.6.19h7.53c3.45,0,7.2-.03,11.25-.1,4.04-.07,7.88-.2,11.54-.39,3.65-.2,6.39-.36,8.21-.49ZM275.42,270.83l-24.45.59,4.69-12.71,6.85-3.91c1.3-.65,2.74-.65,4.3,0,1.57.78,3.62,1.86,6.16,3.22,2.54,1.37,4.33,2.44,5.38,3.23.91.66,1.11,1.7.59,3.13l-3.52,6.46ZM273.66,322.26l8.02,11.93c-1.57.13-3.39.39-5.48.78s-3.91.91-5.48,1.57c-4.83-3.13-8.87-6.65-12.12-10.56-.66-.91-.78-1.76-.39-2.54l1.57-2.15c2.08.26,4.36.49,6.84.68,2.48.2,4.82.29,7.04.29ZM276.6,283.74l8.41,12.12c-1.7.13-3.59.43-5.67.88-2.09.46-3.98.95-5.67,1.46-2.48-1.43-4.83-3.09-7.04-4.98-2.22-1.89-4.24-3.81-6.06-5.77-.65-.91-.85-1.76-.59-2.54l1.76-2.15c2.08.26,4.5.49,7.24.68,2.74.19,5.28.29,7.63.29ZM303.58,321.28v12.32c-2.22-.13-4.73-.16-7.53-.1-2.81.07-5.51.17-8.12.29-2.61.13-4.7.26-6.26.39l-8.02-11.93c2.35,0,5.34-.03,9-.1,3.65-.06,7.4-.16,11.25-.29,3.84-.13,7.07-.32,9.68-.59ZM305.54,282.56v12.71c-2.08,0-4.47.03-7.14.1-2.67.07-5.25.13-7.73.2-2.48.07-4.37.17-5.67.29l-8.41-12.12c2.35,0,5.31-.03,8.9-.1,3.58-.06,7.2-.19,10.85-.39,3.65-.19,6.71-.42,9.19-.68ZM310.82,397.36h-11.54c-.26-1.83-.55-4.47-.88-7.92-.33-3.45-.62-7.17-.88-11.15-.26-3.98-.46-7.73-.59-11.25-.13-3.52-.19-6.39-.19-8.6v-106.59c-1.05-1.95-2.81-3.78-5.28-5.48-2.48-1.69-5.15-3.13-8.02-4.3l2.54-6.65c.26-.91,1.3-1.37,3.13-1.37,2.6.13,5.6.49,9,1.08,3.39.59,6.68,1.31,9.87,2.15,3.2.85,5.77,1.73,7.73,2.64,1.69.91,2.54,2.54,2.54,4.89l-.78,9.98v97.39c0,4.04-.26,8.83-.78,14.38-.53,5.54-1.27,11.08-2.25,16.62-.98,5.54-2.18,10.27-3.62,14.18ZM347.2,409.68h-12.12c-.39-1.83-.72-4.56-.98-8.21-.26-3.65-.52-7.7-.78-12.13-.26-4.43-.46-8.6-.59-12.52-.13-3.91-.2-6.97-.2-9.19v-128.49c-1.17-2.08-3.1-4.07-5.77-5.96-2.67-1.89-5.51-3.43-8.51-4.6l2.35-6.65c.13-.52.46-.91.98-1.17.52-.26,1.24-.39,2.15-.39,2.74.13,5.97.49,9.68,1.08,3.71.59,7.3,1.34,10.76,2.25,3.45.91,6.22,1.89,8.31,2.93,1.95.78,2.87,2.48,2.74,5.09l-.78,10.76v118.52c0,4.17-.29,9.26-.88,15.25s-1.4,11.99-2.44,17.99c-1.04,6-2.35,11.15-3.91,15.45Z"/>
        <path class="cls-1" d="M523.79,313.85l8.41-3.72c2.74.13,5.7.39,8.9.78,3.19.39,6.26.85,9.19,1.37,2.93.52,5.18,1.11,6.75,1.76,2.22.78,3.33,2.22,3.33,4.3,0,2.48-.66,4.73-1.96,6.75-1.31,2.02-2.61,3.36-3.91,4.01-1.57-.26-3.95-.46-7.14-.59-3.2-.13-6.42-.23-9.68-.3-3.26-.06-5.94-.1-8.02-.1h-11.64c-5.54,0-11.96.07-19.26.19-7.3.13-14.9.23-22.78.29-7.89.07-15.45.17-22.69.29-7.24.13-13.49.26-18.77.39-5.28.13-8.9.26-10.85.39-1.7.13-3.98.39-6.84.78-2.87.39-5.71.88-8.51,1.47-2.8.59-5.12,1.14-6.94,1.66-3.91-1.57-7.82-3.65-11.73-6.26-3.91-2.61-7.31-5.15-10.17-7.63-.78-.78-.98-1.69-.59-2.74l1.76-3.33c3.91.52,8.15.98,12.71,1.37,4.56.39,8.67.66,12.32.78h9.87c4.63,0,10.2-.03,16.72-.1,6.52-.06,13.49-.13,20.93-.19,7.43-.06,14.86-.16,22.29-.29,7.43-.13,14.44-.26,21.02-.39,6.58-.13,12.29-.29,17.11-.49,4.82-.19,8.21-.36,10.17-.49ZM446.35,360.2l-23.27-2.15c-2.61-3-6.26-5.41-10.95-7.24l1.57-6.06c.26-.78,1.04-1.17,2.35-1.17,2.48,0,5.54.1,9.19.3,3.65.19,7.33.46,11.05.78,3.71.33,6.88.68,9.49,1.08l.59,14.47ZM515.97,265.16c0,6.39-1.99,12.12-5.97,17.21-3.98,5.08-9.49,9.09-16.53,12.03-7.04,2.93-15.13,4.4-24.25,4.4s-17.21-1.47-24.25-4.4c-7.04-2.93-12.58-6.94-16.62-12.03-4.04-5.09-6.06-10.82-6.06-17.21s2.02-12.29,6.06-17.31c4.04-5.02,9.58-8.96,16.62-11.83,7.04-2.86,15.12-4.3,24.25-4.3s17.21,1.44,24.25,4.3c7.04,2.87,12.55,6.82,16.53,11.83,3.98,5.02,5.97,10.79,5.97,17.31ZM441.85,409.88h-12.52c-.78-1.7-1.44-3.69-1.95-5.97-.53-2.28-.91-4.53-1.17-6.75l-3.13-39.31,23.27-1.57.2,38.14c.26,3.78-.04,6.81-.88,9.09-.85,2.28-2.12,4.4-3.81,6.36ZM493.09,265.16c0-3.91-1.01-7.3-3.03-10.17-2.02-2.86-4.83-5.08-8.41-6.65-3.59-1.56-7.73-2.35-12.42-2.35s-8.84.78-12.42,2.35c-3.59,1.57-6.42,3.78-8.51,6.65-2.09,2.87-3.13,6.26-3.13,10.17s1.04,7.33,3.13,10.27c2.08,2.93,4.92,5.18,8.51,6.75,3.58,1.57,7.73,2.35,12.42,2.35s8.83-.78,12.42-2.35c3.58-1.56,6.39-3.81,8.41-6.75,2.02-2.93,3.03-6.36,3.03-10.27ZM517.73,403.03l-72.56.59.59-14.47h24.15c4.37,0,8.51-.07,12.42-.19,3.91-.13,7.37-.26,10.37-.39l6.26-1.76c3.39-1.17,6.22-1.76,8.51-1.76s4.4.65,6.36,1.95l5.48,2.74c1.3.78,1.96,1.82,1.96,3.13,0,2.22-.36,4.24-1.08,6.06-.72,1.82-1.53,3.19-2.44,4.11ZM498.76,344.56l-.39,14.86c-8.09,0-16.85.07-26.3.2-9.46.13-18.16.32-26.11.59l-.39-14.47c3.13,0,7.07-.06,11.83-.19,4.76-.13,9.78-.23,15.06-.29,5.28-.06,10.27-.16,14.96-.29,4.69-.13,8.47-.26,11.34-.39ZM515.39,387.97l-18.58-.19.59-28.55,22.88-.78c-.53,4.69-1.21,9.62-2.06,14.77-.85,5.15-1.79,10.07-2.83,14.76ZM520.28,358.64l-22.88.78,1.37-14.86,8.41-3.33c1.43-.65,2.8-.65,4.11,0,1.57.66,3.55,1.57,5.97,2.74,2.41,1.17,4.14,2.15,5.18,2.93.91.65,1.11,1.63.59,2.93l-2.74,8.8Z"/>
        <path class="cls-1" d="M579.73,334.39l-3.52-3.33c-.78-.78-.66-1.63.39-2.54,8.73-7.69,16.52-15.78,23.37-24.25,6.84-8.47,12.58-17.11,17.21-25.91,4.63-8.8,7.98-17.37,10.07-25.72l26.21-4.5c0,1.04-.07,2.02-.2,2.93-.13.91-.33,1.7-.59,2.35-2.61,9.65-7.08,19.36-13.4,29.14-6.32,9.78-14.28,19.1-23.86,27.97-9.58,8.87-20.51,16.76-32.76,23.66-1.17.66-2.15.72-2.93.2ZM704.5,342.6v13.88h-10.36c-4.17,0-8.64.04-13.39.1-4.76.07-9.42.13-13.98.2-4.57.07-8.61.16-12.13.29-3.52.13-6.06.26-7.63.39-2.74.13-6,.52-9.78,1.17-3.78.66-6.91,1.44-9.39,2.35-3.52-1.57-7.01-3.43-10.46-5.57-3.46-2.15-6.49-4.34-9.09-6.55-.91-.78-1.17-1.69-.78-2.74l1.76-3.32c3.39.52,7.17.91,11.34,1.17,4.17.26,7.82.39,10.95.39,1.57,0,4.17-.03,7.82-.1,3.65-.06,7.89-.13,12.71-.19,4.82-.06,9.87-.16,15.15-.29,5.28-.13,10.4-.26,15.35-.39,4.95-.13,9.39-.26,13.3-.39,3.91-.13,6.78-.26,8.6-.39ZM653.46,248.14l-26.21,4.5c-.91-1.82-2.38-3.65-4.4-5.48-2.02-1.83-4.2-3.39-6.55-4.7l3.13-5.87c.39-.78,1.37-1.11,2.93-.98,2.74.26,5.93.85,9.58,1.76,3.65.91,7.17,1.95,10.56,3.13,3.39,1.17,5.93,2.22,7.63,3.13,2.22,1.31,3.33,2.8,3.33,4.5ZM662.85,295.67l-1.57,1.56-33.64-13.88,8.41-11.15,26.8,23.47ZM668.52,322.07l-40.87-38.72,35.01,12.32,10.56,2.93c1.82,2.22,3.71,4.83,5.67,7.82,1.95,3,3.39,5.48,4.3,7.43,1.43,3.26,1.82,5.67,1.17,7.24-.65,1.83-2.05,3.2-4.2,4.11-2.15.91-4.14,1.17-5.97.78-.78-.13-1.7-.59-2.74-1.37-1.04-.78-2.02-1.63-2.93-2.54ZM718.19,334.39h-13.1c-.39-1.57-.72-3.78-.98-6.65-.26-2.87-.53-5.93-.78-9.19-.26-3.26-.46-6.42-.59-9.49-.13-3.06-.2-5.57-.2-7.53v-61.61c-1.31-2.08-3.32-4.17-6.06-6.26-2.74-2.08-5.8-3.71-9.19-4.89l2.35-7.04c.26-.91,1.24-1.37,2.93-1.37,3,.13,6.45.52,10.36,1.17,3.91.65,7.69,1.4,11.34,2.25,3.65.85,6.65,1.8,9,2.84,1.95.78,2.86,2.54,2.74,5.28l-.78,11.54v52.41c0,3.65-.33,7.95-.98,12.91-.66,4.96-1.5,9.71-2.54,14.28-1.04,4.56-2.22,8.35-3.52,11.34ZM724.06,356.88l-22.69-.59,2.74-13.69,7.04-3.13c1.3-.65,2.61-.65,3.91,0,1.57.78,3.52,1.83,5.87,3.13,2.35,1.31,4.11,2.35,5.28,3.13.65.66.78,1.7.39,3.13l-2.54,8.02ZM717.21,411.44h-13.49c-.39-1.95-.78-4.5-1.17-7.63-.39-3.13-.68-6.29-.88-9.49-.2-3.2-.3-5.9-.3-8.12v-29.92h22.69l-.59,24.84c0,2.87-.29,6.23-.88,10.07-.59,3.85-1.34,7.56-2.25,11.15-.91,3.58-1.95,6.62-3.13,9.09Z"/>
        <path class="cls-1" d="M962.26,325.39l8.41-3.72c2.74.13,5.7.39,8.9.78,3.19.39,6.26.85,9.19,1.37,2.93.52,5.18,1.11,6.75,1.76,2.22.78,3.33,2.28,3.33,4.5,0,2.35-.66,4.53-1.96,6.55-1.31,2.02-2.61,3.36-3.91,4.01-1.57-.26-3.95-.46-7.14-.59-3.2-.13-6.42-.23-9.68-.3-3.26-.06-5.94-.1-8.02-.1-2.22,0-6.1.03-11.64.1-5.54.07-11.96.13-19.26.2-7.3.07-14.9.13-22.78.19-7.89.07-15.45.17-22.69.29-7.24.13-13.49.26-18.77.39-5.28.13-8.9.26-10.85.39-1.7.13-3.98.43-6.84.88-2.87.46-5.71.95-8.51,1.46-2.8.53-5.12,1.05-6.94,1.57-3.91-1.43-7.82-3.45-11.73-6.06-3.91-2.61-7.31-5.21-10.17-7.82-.78-.78-.98-1.69-.59-2.74l1.76-3.33c3.91.66,8.15,1.17,12.71,1.57,4.56.39,8.67.59,12.32.59h9.87c4.63,0,10.2-.03,16.72-.1,6.52-.06,13.49-.13,20.93-.19,7.43-.06,14.86-.16,22.29-.29s14.44-.26,21.02-.39c6.58-.13,12.29-.29,17.11-.49,4.82-.19,8.21-.36,10.17-.49ZM943.69,236.01l7.24-3.32c3.52.13,7.33.49,11.44,1.08s7.14,1.21,9.09,1.86c1.82.65,2.74,1.89,2.74,3.71,0,2.35-.55,4.53-1.66,6.55-1.11,2.02-2.12,3.36-3.03,4.01-1.31-.13-3.29-.23-5.97-.29-2.67-.07-5.38-.13-8.12-.2-2.74-.06-4.96-.1-6.65-.1-1.56,0-4.27.04-8.12.1-3.85.07-8.31.13-13.39.2-5.09.07-10.4.13-15.94.19-5.54.07-10.85.13-15.94.19-5.08.07-9.52.13-13.3.2-3.78.07-6.39.17-7.82.29-2.08.13-4.76.49-8.02,1.08s-5.93,1.21-8.02,1.86c-3.13-1.57-6.35-3.52-9.68-5.87-3.32-2.35-6.1-4.69-8.31-7.04-.66-.65-.78-1.37-.39-2.15l1.37-2.93c3.52.52,7.3.98,11.34,1.37,4.04.39,7.36.59,9.97.59h8.6c4.04,0,8.83-.03,14.38-.1,5.54-.06,11.31-.16,17.31-.29,5.99-.13,11.76-.26,17.31-.39,5.54-.13,10.43-.23,14.67-.29,4.24-.07,7.2-.16,8.9-.3ZM945.25,295.47l6.65-2.74c3.13.13,6.62.46,10.46.98,3.85.52,6.62,1.11,8.31,1.76,1.69.66,2.54,1.89,2.54,3.72,0,2.35-.52,4.5-1.56,6.45-1.05,1.95-2.09,3.2-3.13,3.71-1.17-.13-2.93-.23-5.28-.29-2.35-.06-4.73-.1-7.14-.1h-6.16c-1.57,0-4.24.03-8.02.1-3.78.07-8.25.13-13.4.2-5.15.07-10.5.17-16.04.29-5.54.13-10.89.26-16.04.39-5.15.13-9.62.23-13.4.29-3.78.07-6.39.17-7.82.29-2.09.13-4.76.49-8.02,1.08-3.26.59-5.87,1.21-7.82,1.86-3.26-1.57-6.52-3.55-9.78-5.97-3.26-2.41-6.06-4.72-8.41-6.94-.52-.65-.59-1.37-.19-2.15l1.37-2.93c3.39.52,7.1.95,11.15,1.27,4.04.32,7.36.49,9.97.49h8.7c4.11,0,8.93-.03,14.47-.1,5.54-.06,11.34-.16,17.41-.29,6.06-.13,11.9-.29,17.5-.49,5.61-.2,10.49-.36,14.67-.49,4.17-.13,7.17-.26,9-.39ZM891.86,273.57l-20.34-1.95c-.65-1.44-1.69-2.8-3.13-4.11-1.44-1.3-3-2.41-4.69-3.32l2.15-5.28c.65-1.04,1.76-1.5,3.32-1.37,3.39.26,7.14.91,11.25,1.95,4.11,1.05,7.46,2.09,10.07,3.13,1.43.91,2.08,2.28,1.95,4.11l-.59,6.84ZM892.25,300.16h-18.19l-2.54-28.55,20.34,1.95.39,26.6ZM912.2,409.29h-12.52c-.39-1.95-.72-4.69-.98-8.21-.26-3.52-.52-7.31-.78-11.34-.26-4.04-.46-7.88-.59-11.54-.13-3.65-.19-6.65-.19-9v-37.94h22.69v31.1c0,3-.23,6.62-.68,10.85-.46,4.24-1.01,8.6-1.66,13.1-.66,4.5-1.44,8.77-2.35,12.81s-1.89,7.43-2.93,10.17ZM944.86,268.09l-20.53-1.57c-.65-1.04-1.73-2.12-3.23-3.23-1.5-1.1-3.1-1.99-4.79-2.64l1.76-5.67c.26-.39.59-.72.98-.98s1.17-.39,2.35-.39c3.39.13,7.26.52,11.63,1.17,4.37.65,7.85,1.44,10.46,2.35,1.57.52,2.28,1.83,2.15,3.91l-.78,7.04ZM941.73,298.6h-17.99l.59-32.07,20.53,1.57-3.13,30.51Z"/>
        <path class="cls-1" d="M1151.19,360.01l8.41-3.91c2.74.13,5.7.39,8.9.78,3.2.39,6.26.85,9.19,1.37,2.93.53,5.18,1.11,6.75,1.76,2.22.78,3.32,2.29,3.32,4.5,0,2.48-.65,4.69-1.95,6.65-1.31,1.96-2.61,3.26-3.91,3.91-1.56-.26-3.94-.46-7.14-.59-3.2-.13-6.42-.23-9.68-.29-3.26-.06-5.93-.1-8.02-.1-2.22,0-6.1.04-11.64.1-5.54.07-11.96.13-19.26.19-7.31.07-14.9.13-22.78.2-7.89.07-15.45.17-22.69.29-7.24.13-13.5.26-18.77.39-5.28.13-8.9.26-10.85.39-1.7.13-3.98.42-6.85.88-2.87.46-5.7.95-8.51,1.47-2.81.52-5.12,1.04-6.94,1.56-3.91-1.43-7.82-3.45-11.74-6.06-3.91-2.61-7.3-5.21-10.17-7.82-.78-.78-.98-1.69-.59-2.74l1.76-3.32c3.91.65,8.15,1.17,12.71,1.56,4.56.39,8.67.65,12.32.78h9.88c4.63,0,10.2-.03,16.72-.1,6.52-.06,13.49-.16,20.93-.29,7.43-.13,14.87-.26,22.29-.39,7.43-.13,14.44-.26,21.02-.39,6.58-.13,12.29-.26,17.11-.39,4.82-.13,8.22-.26,10.17-.39ZM1065.92,285.89h-23.27v-21.32c-1.57-1.57-3.59-3.03-6.06-4.4-2.48-1.37-5.15-2.51-8.02-3.42l1.37-6.26c.52-.78,1.3-1.17,2.35-1.17,1.96,0,4.5.07,7.63.2,3.13.13,6.39.29,9.78.49,3.39.2,6.58.43,9.58.68,3,.26,5.34.59,7.04.98l-.39,13.3v20.93ZM1070.61,314.05l-8.41,13.88c-6.78,0-11.74-1.56-14.87-4.69-3.13-3.13-4.69-7.63-4.69-13.5v-26.4h23.27v26.01c0,3.13,1.57,4.7,4.7,4.7ZM1150.99,263.59l-93.68,1.57v-13.49c3,0,6.84-.03,11.54-.1,4.69-.06,9.84-.13,15.45-.2,5.61-.06,11.15-.16,16.63-.29,5.48-.13,10.46-.26,14.96-.39,4.5-.13,8.05-.26,10.66-.39l6.45-3.52c3.26,0,6.94.1,11.05.29,4.11.19,7.4.62,9.88,1.27,2.35.52,3.52,1.83,3.52,3.91,0,2.35-.26,4.37-.78,6.06-.52,1.69-1.11,3-1.76,3.91-.78.91-2.08,1.37-3.91,1.37ZM1152.75,326.56l-90.55,1.37,8.02-13.88h9.88c3.97,0,8.28-.03,12.91-.1,4.63-.06,9.22-.13,13.79-.19,4.56-.06,8.8-.16,12.71-.29,3.91-.13,7.17-.26,9.78-.39l5.87-3.33c3.13,0,6.78.13,10.95.39,4.17.26,7.36.72,9.58,1.37,2.35.52,3.52,1.89,3.52,4.11,0,2.48-.29,4.56-.88,6.26-.59,1.69-1.21,2.8-1.86,3.32-.91.91-2.15,1.37-3.72,1.37Z"/>
        <path class="cls-1" d="M1340.1,361.96l8.41-3.72c2.74.13,5.7.39,8.9.78,3.2.39,6.26.85,9.19,1.37,2.93.52,5.18,1.11,6.75,1.76,2.22.78,3.32,2.28,3.32,4.5,0,2.35-.65,4.53-1.95,6.55-1.31,2.02-2.61,3.36-3.91,4.01-1.56-.26-3.94-.46-7.14-.59-3.2-.13-6.42-.23-9.68-.29s-5.93-.1-8.02-.1h-11.64c-5.54,0-11.96.07-19.26.19-7.31.13-14.9.23-22.78.3-7.89.07-15.45.16-22.69.29-7.24.13-13.5.26-18.77.39-5.28.13-8.9.26-10.85.39-1.7.13-3.98.39-6.85.78-2.87.39-5.7.88-8.51,1.47-2.81.59-5.12,1.14-6.94,1.66-3.91-1.56-7.82-3.65-11.74-6.26-3.91-2.61-7.3-5.15-10.17-7.63-.78-.78-.98-1.69-.59-2.74l1.76-3.33c3.91.66,8.15,1.17,12.71,1.57s8.67.59,12.32.59h9.88c4.63,0,10.2-.03,16.72-.1,6.52-.06,13.49-.13,20.93-.19,7.43-.06,14.87-.16,22.29-.29,7.43-.13,14.44-.26,21.02-.39,6.58-.13,12.29-.29,17.11-.49,4.82-.19,8.22-.36,10.17-.49ZM1254.44,297.23h-23.27v-35.01c-1.44-1.69-3.42-3.22-5.97-4.59-2.54-1.37-5.25-2.44-8.12-3.23l1.57-6.26c.39-.91,1.1-1.37,2.15-1.37,1.95,0,4.5.07,7.63.19,3.13.13,6.39.33,9.78.59,3.39.26,6.58.49,9.58.68,3,.2,5.34.49,7.04.88l-.39,13.3v34.81ZM1259.14,321.87l-8.22,13.69c-6.78.13-11.77-1.37-14.96-4.5-3.2-3.13-4.79-7.63-4.79-13.49v-26.4h23.27v25.82c0,3.26,1.57,4.89,4.7,4.89ZM1332.87,296.84l-84.88,1.76v-13.49c2.74,0,6.32-.03,10.76-.1,4.43-.06,9.22-.13,14.38-.19,5.15-.06,10.27-.16,15.35-.29,5.08-.13,9.68-.26,13.79-.39,4.11-.13,7.33-.26,9.68-.39l6.06-2.93c3,0,6.29.13,9.88.39,3.58.26,6.36.59,8.31.98,1.3.26,2.25.72,2.84,1.37.59.66.88,1.5.88,2.54,0,2.22-.3,4.17-.88,5.87-.59,1.7-1.21,2.87-1.86,3.52-.91.91-2.35,1.37-4.3,1.37ZM1339.71,334.19l-88.79,1.37,7.82-13.69h9.68c3.85,0,8.02-.03,12.52-.1,4.5-.06,8.96-.13,13.4-.2,4.43-.06,8.54-.16,12.32-.29,3.78-.13,6.91-.26,9.39-.39l6.06-3.32c3.26-.13,6.95-.03,11.05.29,4.11.33,7.33.81,9.68,1.47,2.35.52,3.52,1.89,3.52,4.11,0,2.48-.33,4.56-.98,6.26-.66,1.7-1.24,2.8-1.76,3.33-.78.78-2.09,1.17-3.91,1.17ZM1337.56,261.05l-85.86,1.56v-13.49c2.61,0,6.03-.03,10.27-.1,4.23-.06,8.8-.13,13.69-.19,4.89-.06,9.81-.16,14.77-.29,4.95-.13,9.42-.26,13.4-.39,3.98-.13,7.07-.26,9.29-.39l6.65-3.52c3.13,0,6.75.13,10.85.39,4.11.26,7.46.65,10.07,1.17,2.22.53,3.33,1.83,3.33,3.91,0,2.35-.26,4.4-.78,6.16-.52,1.76-1.11,3.03-1.76,3.81-.78.91-2.09,1.37-3.91,1.37Z"/>
        <path class="cls-1" d="M1428.7,305.44h-22.69v-14.08c-2.74-2.61-6.59-4.7-11.54-6.26l1.17-5.28c.26-.78,1.04-1.17,2.35-1.17,2.35,0,5.57.04,9.68.1,4.11.07,8.15.13,12.12.2,3.98.07,7.07.16,9.29.29l-.39,12.52v13.69ZM1462.14,241.69v13.1h-6.75c-3.07,0-6.32.03-9.78.1-3.45.07-6.68.13-9.68.2-3,.07-5.08.1-6.26.1-2.09.13-4.63.49-7.63,1.07-3,.59-5.74,1.21-8.22,1.86-3.13-1.56-6.1-3.39-8.9-5.48-2.8-2.08-5.32-4.24-7.53-6.46-.78-.65-.98-1.43-.59-2.35l1.57-3.13c2.74.52,5.99.95,9.78,1.27,3.78.33,6.84.49,9.19.49h6.75c3.06,0,6.45-.03,10.17-.1,3.71-.06,7.43-.13,11.15-.19,3.71-.06,7.07-.13,10.07-.2,3-.06,5.21-.16,6.65-.29ZM1497.15,311.51l1.37,5.48c.26,1.17-.26,2.02-1.57,2.54-5.61,2.22-12.16,4.37-19.65,6.46-7.5,2.09-15.09,3.88-22.78,5.38-7.69,1.5-14.73,2.64-21.12,3.43-1.44.13-2.87.23-4.3.29-1.44.07-2.74.1-3.91.1-5.22,0-9.19-.88-11.93-2.64-2.74-1.76-4.89-4.79-6.46-9.09-.13-.52-.29-1.79-.49-3.81-.2-2.02-.29-4.2-.29-6.55v-17.8h22.69v18.97c0,2.35,1.1,3.52,3.32,3.52,4.56-.13,9.65-.39,15.26-.78,5.6-.39,11.31-.91,17.11-1.57,5.8-.65,11.31-1.43,16.52-2.35,5.21-.91,9.78-1.82,13.69-2.74,1.31-.39,2.15,0,2.55,1.17ZM1521.59,346.91v14.08h-10.56c-4.18,0-8.67.03-13.5.1-4.83.07-9.48.17-13.98.29-4.5.13-8.48.26-11.93.39-3.46.13-6.03.26-7.73.39-2.48.13-5.64.49-9.49,1.08-3.85.59-7.01,1.34-9.49,2.25-3.65-1.44-7.2-3.26-10.66-5.48-3.46-2.22-6.49-4.43-9.09-6.65-.91-.78-1.17-1.69-.78-2.74l1.76-3.32c3.52.52,7.37.91,11.54,1.17,4.17.26,7.82.39,10.95.39,1.56,0,4.13-.03,7.73-.1,3.58-.07,7.82-.13,12.71-.2,4.89-.06,9.94-.16,15.16-.29,5.21-.13,10.33-.26,15.35-.39,5.02-.13,9.45-.29,13.3-.49,3.85-.2,6.75-.36,8.7-.49ZM1480.33,289.99l-52.22,1.76v-12.52c1.57,0,3.62-.03,6.16-.1,2.54-.06,5.21-.16,8.02-.29,2.8-.13,5.38-.23,7.73-.29,2.35-.07,4.11-.16,5.28-.3l5.87-1.56c3.39-.91,6.39-1.37,9-1.37s4.5.39,5.67,1.17l5.48,2.93c1.04.66,1.57,1.5,1.57,2.54,0,1.7-.26,3.29-.78,4.79-.52,1.5-1.11,2.58-1.76,3.23ZM1477.98,278.26h-19.17c.13-1.43.23-3.78.29-7.04.06-3.26.1-6.52.1-9.78s-.07-5.54-.19-6.85h23.66c-.13,2.09-.46,4.63-.98,7.63-.52,3-1.11,5.94-1.76,8.8-.65,2.87-1.31,5.28-1.95,7.24ZM1482.67,254.59h-23.66l2.54-12.91,8.02-3.52c1.3-.65,2.61-.65,3.91,0,1.43.66,3.39,1.6,5.87,2.84,2.47,1.24,4.23,2.19,5.28,2.84,1.04.78,1.3,1.76.78,2.93l-2.74,7.82ZM1500.86,276.11l8.61,12.71c-1.57.13-3.49.52-5.77,1.17-2.29.65-4.27,1.31-5.97,1.95-2.74-1.56-5.32-3.32-7.73-5.28-2.41-1.95-4.6-3.98-6.55-6.06-.65-.78-.78-1.63-.39-2.54l1.76-2.93c2.22.26,4.79.49,7.73.68,2.93.2,5.7.3,8.31.3ZM1527.66,274.93v12.91c-2.74.13-6,.26-9.78.39-3.78.13-6.58.33-8.41.59l-8.61-12.71c2.09,0,4.79-.03,8.12-.1,3.33-.06,6.68-.2,10.07-.39,3.39-.19,6.26-.42,8.61-.68ZM1535.08,338.1h-13.1c-.39-1.56-.72-3.78-.97-6.65-.27-2.86-.52-5.93-.78-9.19-.27-3.26-.46-6.42-.59-9.48-.13-3.06-.2-5.57-.2-7.53v-65.32c-1.31-2.08-3.32-4.17-6.06-6.26-2.74-2.08-5.81-3.71-9.19-4.89l2.34-7.04c.26-.91,1.24-1.37,2.93-1.37,3,.13,6.46.52,10.36,1.17,3.92.65,7.69,1.4,11.34,2.25,3.65.85,6.65,1.8,9,2.84,1.95.78,2.86,2.54,2.74,5.28l-.78,11.54v55.93c0,3.78-.32,8.12-.97,13.01-.66,4.89-1.5,9.65-2.55,14.28s-2.22,8.44-3.52,11.44ZM1540.95,361.38l-22.68-.59,2.74-13.69,7.04-3.13c1.3-.78,2.6-.78,3.91,0,1.57.78,3.55,1.83,5.97,3.13,2.41,1.31,4.14,2.35,5.18,3.13.65.66.78,1.7.39,3.13l-2.54,8.02ZM1534.11,411.64h-13.5c-.39-1.96-.78-4.5-1.17-7.63-.39-3.13-.69-6.29-.88-9.48-.2-3.2-.29-5.84-.29-7.92v-25.82h22.68l-.39,20.53c0,3-.33,6.42-.98,10.27-.66,3.85-1.44,7.56-2.35,11.15-.91,3.58-1.95,6.55-3.13,8.9Z"/>
        <path class="cls-1" d="M1778.57,308.97l8.41-3.72c2.74,0,5.7.23,8.9.68,3.19.46,6.26.95,9.19,1.47,2.93.52,5.18,1.04,6.75,1.57,2.22.78,3.32,2.28,3.32,4.5,0,2.48-.65,4.73-1.95,6.75-1.31,2.02-2.61,3.29-3.91,3.81-1.57-.26-3.95-.46-7.14-.59-3.2-.13-6.42-.23-9.68-.29-3.26-.06-5.93-.1-8.02-.1-2.22,0-6.1.04-11.64.1-5.54.07-11.96.13-19.26.19-7.3.07-14.9.13-22.78.2-7.89.07-15.45.17-22.69.29-7.24.13-13.5.26-18.78.39-5.28.13-8.9.26-10.85.39-1.69.13-3.98.42-6.84.88-2.87.46-5.7.98-8.51,1.57-2.8.59-5.12,1.14-6.94,1.66-3.91-1.57-7.82-3.65-11.73-6.26-3.91-2.61-7.31-5.21-10.17-7.82-.78-.78-.98-1.63-.59-2.54l1.76-3.52c3.91.65,8.15,1.17,12.71,1.56,4.56.39,8.67.66,12.32.78h9.88c4.63,0,10.2-.03,16.72-.1,6.52-.06,13.49-.13,20.93-.19,7.43-.06,14.86-.16,22.29-.29,7.43-.13,14.44-.26,21.02-.39,6.58-.13,12.29-.29,17.11-.49,4.82-.19,8.21-.36,10.17-.49ZM1652.04,302.12l-2.54-3.52c-.91-1.43-.65-2.41.78-2.93,18.38-6.26,35.17-13.43,50.36-21.51,15.19-8.08,28.26-16.88,39.21-26.4l16.62-5.48,16.62,4.89c-9.78,8.87-20.89,16.88-33.34,24.05-12.45,7.17-25.85,13.37-40.19,18.58-14.34,5.22-29.14,9.39-44.4,12.52-1.44.39-2.48.32-3.13-.2ZM1751.78,234.45v13.49c-2.48-.13-5.64-.19-9.48-.19s-7.92-.03-12.22-.1c-4.3-.06-8.51-.03-12.61.1-4.11.13-7.82.19-11.15.19s-5.77.07-7.33.2c-2.35.13-5.38.49-9.09,1.08-3.72.59-6.82,1.27-9.29,2.05-3.26-1.43-6.55-3.19-9.87-5.28-3.33-2.08-6.16-4.24-8.51-6.46-.91-.91-1.11-1.76-.59-2.54l1.56-3.33c3.26.52,6.81.91,10.66,1.17,3.84.26,7.26.39,10.27.39h24.74c5.67,0,11.37-.06,17.11-.2,5.74-.13,10.92-.23,15.55-.29,4.63-.06,8.05-.16,10.27-.29ZM1768.99,374.67c0,6.91-2.05,12.98-6.16,18.19-4.11,5.21-9.55,9.26-16.33,12.13-6.78,2.86-14.41,4.3-22.88,4.3s-15.94-1.44-22.78-4.3c-6.84-2.87-12.29-6.91-16.33-12.13-4.04-5.21-6.06-11.27-6.06-18.19,0-6.52,2.02-12.19,6.06-17.01,4.04-4.82,9.49-8.54,16.33-11.15,6.85-2.61,14.44-3.91,22.78-3.91s16.1,1.31,22.88,3.91c6.78,2.61,12.22,6.32,16.33,11.15,4.11,4.83,6.16,10.5,6.16,17.01ZM1746.11,374.67c0-5.6-2.15-9.97-6.46-13.1-4.3-3.13-9.65-4.7-16.04-4.7s-11.54,1.57-15.84,4.7c-4.3,3.13-6.45,7.5-6.45,13.1s2.15,9.98,6.45,13.1c4.3,3.13,9.58,4.69,15.84,4.69s11.73-1.56,16.04-4.69c4.3-3.13,6.46-7.5,6.46-13.1ZM1730.85,349.84h-14.47c-.91-2.22-1.57-4.99-1.96-8.31-.39-3.32-.59-6.29-.59-8.9v-12.71h22.69v8.41c0,3.78-.56,7.69-1.66,11.74-1.11,4.04-2.44,7.3-4.01,9.78ZM1769.77,275.52l-.78,1.57-52.81-.78,14.08-9.78,39.51,9ZM1786.59,295.47l-70.41-19.17,53.59-.78,10.17-.19c2.47.78,5.15,1.86,8.02,3.23,2.86,1.37,5.08,2.64,6.65,3.81,2.61,1.56,3.98,3.26,4.11,5.08.26,1.7-.17,3.33-1.27,4.89-1.11,1.57-2.44,2.61-4.01,3.13-.91.39-1.99.56-3.23.49-1.24-.06-2.44-.23-3.62-.49ZM1773.09,247.16l-33.24.59,11.34-13.3,9.58-3.71c1.56-.65,3.19-.65,4.89,0,1.95.65,4.46,1.63,7.53,2.93,3.06,1.31,5.31,2.35,6.75,3.13.65.26.98.72.98,1.37s-.26,1.31-.78,1.96l-7.04,7.04Z"/>
        <path class="cls-1" d="M1919.18,281.78c0,7.7-1.93,14.54-5.77,20.54-3.85,6-9.09,10.66-15.74,13.98-6.65,3.32-14.28,4.98-22.88,4.98s-16.27-1.66-22.98-4.98c-6.72-3.33-12-7.99-15.84-13.98s-5.77-12.84-5.77-20.54,1.92-14.28,5.77-20.14c3.85-5.87,9.13-10.49,15.84-13.88,6.71-3.39,14.38-5.09,22.98-5.09s16.23,1.7,22.88,5.09c6.65,3.39,11.9,8.02,15.74,13.88,3.84,5.87,5.77,12.58,5.77,20.14ZM1896.89,281.78c0-4.69-.95-8.73-2.84-12.12-1.89-3.39-4.5-6.03-7.82-7.92-3.32-1.89-7.14-2.84-11.44-2.84s-8.15.95-11.54,2.84c-3.39,1.89-6.03,4.53-7.92,7.92-1.89,3.39-2.84,7.43-2.84,12.12s.95,8.74,2.84,12.13c1.89,3.39,4.53,6,7.92,7.82,3.39,1.83,7.24,2.74,11.54,2.74s8.12-.91,11.44-2.74c3.33-1.82,5.93-4.43,7.82-7.82,1.89-3.39,2.84-7.43,2.84-12.13ZM1966.12,368.03c0,7.95-1.99,14.8-5.97,20.54-3.98,5.74-9.32,10.17-16.04,13.3-6.72,3.13-14.18,4.69-22.39,4.69s-15.72-1.56-22.49-4.69c-6.78-3.13-12.16-7.56-16.14-13.3-3.98-5.74-5.97-12.58-5.97-20.54,0-7.43,1.99-13.85,5.97-19.26,3.98-5.41,9.36-9.58,16.14-12.52,6.78-2.93,14.28-4.4,22.49-4.4s15.68,1.47,22.39,4.4c6.71,2.93,12.06,7.11,16.04,12.52,3.98,5.41,5.97,11.83,5.97,19.26ZM1943.24,368.03c0-6.65-2.09-11.8-6.26-15.45-4.17-3.65-9.26-5.48-15.25-5.48s-11.28,1.83-15.45,5.48c-4.17,3.65-6.26,8.8-6.26,15.45s2.08,11.61,6.26,15.26c4.17,3.65,9.32,5.48,15.45,5.48s11.08-1.82,15.25-5.48c4.17-3.65,6.26-8.73,6.26-15.26ZM1961.04,334.39h-13.1c-.26-1.69-.56-4.01-.88-6.94-.32-2.93-.62-6.13-.88-9.58-.26-3.45-.43-6.71-.49-9.78-.07-3.06-.1-5.64-.1-7.73v-60.43c-1.44-2.08-3.52-4.17-6.26-6.26-2.74-2.08-5.8-3.71-9.19-4.89l2.35-7.04c.39-.91,1.37-1.37,2.93-1.37,3.13.13,6.65.52,10.56,1.17,3.91.65,7.66,1.4,11.25,2.25,3.58.85,6.55,1.8,8.9,2.84,1.95.78,2.86,2.54,2.74,5.28l-.78,11.54v51.04c0,3.78-.33,8.21-.98,13.3-.66,5.08-1.5,10.01-2.54,14.77-1.04,4.76-2.22,8.7-3.52,11.83ZM1998.78,291.36l-35.99.98v-13.69l16.04-.78,6.26-4.11c2.87-.13,6.1-.1,9.68.1,3.58.2,6.22.49,7.92.88,2.61.52,3.98,2.02,4.11,4.5.26,2.22.13,4.27-.39,6.16-.52,1.89-1.17,3.23-1.95,4.01-.52.65-1.37,1.14-2.54,1.46-1.17.33-2.22.49-3.13.49Z"/>
        <path class="cls-1" d="M2041.22,356.1l13.69,15.65c-2.35.13-5.31.59-8.9,1.37-3.59.78-6.42,1.56-8.51,2.35-3.78-1.69-7.73-3.94-11.83-6.75-4.11-2.8-7.59-5.57-10.46-8.31-.78-.78-.98-1.63-.59-2.54l1.37-3.52c4.04.65,8.31,1.11,12.81,1.37s8.64.39,12.42.39ZM2108.3,260.27l6.65-2.93c3,.13,6.39.49,10.17,1.08,3.78.59,6.58,1.21,8.41,1.86,1.57.52,2.35,1.7,2.35,3.52,0,2.22-.53,4.3-1.57,6.26-1.04,1.95-2.09,3.2-3.13,3.71-1.31-.13-3.1-.23-5.38-.29-2.28-.06-4.63-.13-7.04-.19-2.42-.06-4.4-.1-5.97-.1-1.44,0-4.2.04-8.31.1-4.11.07-8.8.17-14.08.29-5.28.13-10.6.26-15.94.39-5.35.13-10.04.26-14.08.39-4.04.13-6.78.26-8.22.39-2.08.13-4.66.46-7.73.98-3.07.52-5.57,1.11-7.53,1.76-3-1.44-6-3.29-9-5.57-3-2.28-5.55-4.47-7.63-6.55-.78-.78-.98-1.56-.59-2.35l1.57-2.93c3.13.52,6.58.98,10.36,1.37,3.78.39,6.84.59,9.19.59,1.69,0,4.79-.03,9.29-.1,4.5-.06,9.65-.16,15.45-.29,5.8-.13,11.67-.29,17.6-.49,5.93-.19,11.15-.36,15.65-.49,4.5-.13,7.66-.26,9.48-.39ZM2121.6,309.16c0,6-1.83,11.25-5.48,15.74-3.65,4.5-8.58,7.99-14.77,10.46-6.19,2.48-13.07,3.71-20.63,3.71s-14.67-1.24-20.93-3.71c-6.26-2.48-11.24-5.97-14.96-10.46-3.71-4.5-5.57-9.75-5.57-15.74s1.86-11.21,5.57-15.65c3.72-4.43,8.7-7.89,14.96-10.37,6.26-2.47,13.23-3.71,20.93-3.71s14.44,1.24,20.63,3.71c6.19,2.48,11.12,5.94,14.77,10.37,3.65,4.43,5.48,9.65,5.48,15.65ZM2150.35,347.49l.98,7.63c.26,1.44-.39,2.35-1.95,2.74-4.56,1.17-9.94,2.35-16.14,3.52-6.19,1.17-12.78,2.32-19.75,3.43-6.98,1.11-14.02,2.12-21.12,3.03-7.11.91-13.88,1.73-20.34,2.44-6.45.72-12.16,1.21-17.11,1.47l-13.69-15.65c5.73-.13,12.32-.42,19.75-.88,7.43-.46,15.16-.98,23.18-1.56,8.02-.59,15.97-1.3,23.86-2.15,7.89-.85,15.26-1.73,22.1-2.64,6.84-.91,12.61-1.89,17.31-2.93.65-.26,1.27-.2,1.86.19s.95.85,1.08,1.37ZM2049.83,234.84l1.56-2.35c8.48,1.44,16.92,2.44,25.33,3.03s15.61.81,21.61.68c2.08,0,3.45.65,4.11,1.95.65,1.05,1.01,2.38,1.08,4.01.06,1.63-.03,3.2-.29,4.69-.26,1.5-.85,2.64-1.76,3.43-.65.78-1.89,1.17-3.71,1.17-2.74,0-5.97.07-9.68.2-3.71.13-7.4.26-11.05.39-3.65.13-6.78.32-9.39.59-2.22.26-3.91-.06-5.08-.98-2.09-1.44-4.3-3.49-6.65-6.16-2.35-2.67-4.37-5.31-6.06-7.92-.52-1.17-.52-2.08,0-2.74ZM2100.28,309.16c0-5.21-1.89-9.29-5.67-12.22-3.78-2.93-8.41-4.4-13.89-4.4s-10.27,1.46-13.98,4.4c-3.71,2.93-5.57,7.01-5.57,12.22s1.86,9.09,5.57,12.03c3.72,2.93,8.38,4.4,13.98,4.4s10.1-1.47,13.89-4.4c3.78-2.93,5.67-6.95,5.67-12.03ZM2091.68,360.6h-21.12v-26.99h21.12v26.99ZM2161.89,409.68h-12.71c-.26-1.83-.55-4.63-.88-8.41-.33-3.78-.62-7.92-.88-12.42s-.42-8.77-.49-12.81c-.07-4.04-.1-7.24-.1-9.58v-126.34c-1.44-2.22-3.59-4.37-6.45-6.46-2.87-2.08-6-3.78-9.39-5.08l2.35-6.85c.13-.39.39-.71.78-.98.39-.26,1.04-.39,1.95-.39,3.13.13,6.68.52,10.66,1.17,3.98.65,7.86,1.4,11.64,2.25,3.78.85,6.78,1.8,9,2.84,2.08.78,3.06,2.54,2.93,5.28l-.78,11.93v115.58c0,3.26-.17,7.07-.49,11.44-.33,4.37-.82,8.9-1.47,13.59-.66,4.7-1.47,9.26-2.44,13.69-.98,4.43-2.05,8.28-3.23,11.54Z"/>
      </g>
    </g>
  </g>
</svg>