<?xml version="1.0" encoding="UTF-8"?>
<svg id="_레이어_2" data-name="레이어_2" xmlns="http://www.w3.org/2000/svg" viewBox="0 0 794 794">
  <defs>
    <style>
      .cls-1 {
        fill: #fff;
      }
    </style>
  </defs>
  <g id="_레이어_1-2" data-name="레이어_1">
    <g>
      <g>
        <path class="cls-1" d="M102.05,428.61l-7.09.5-2.36-33.74-11.61.81,2.3,32.96-7.09.5-2.3-32.96-17.61,1.23-.54-7.79,43.41-3.03,2.9,41.54Z"/>
        <path class="cls-1" d="M108.93,452.76c3.46,14.82-4.64,25.46-16.88,28.32-12.24,2.86-24.21-3.08-27.68-17.91-3.48-14.9,4.62-25.54,16.86-28.39,12.24-2.86,24.21,3.08,27.7,17.98ZM90.28,473.48c9.35-2.18,14.31-8.39,11.81-19.11-2.52-10.79-9.73-14.17-19.08-11.98-9.35,2.19-14.31,8.39-11.79,19.19,2.5,10.72,9.71,14.09,19.06,11.9Z"/>
        <path class="cls-1" d="M123.83,498.74c5.88,14.04-.34,25.87-11.93,30.72-11.59,4.86-24.39.99-30.27-13.06-5.91-14.11.31-25.95,11.9-30.8,11.59-4.86,24.39-.98,30.3,13.13ZM108.88,522.26c8.86-3.71,12.72-10.66,8.47-20.81-4.28-10.23-11.94-12.35-20.8-8.64-8.86,3.71-12.72,10.66-8.44,20.88,4.25,10.15,11.91,12.28,20.77,8.57Z"/>
        <path class="cls-1" d="M139.91,575.92c-11.41,7.23-22.38,4.66-26.43-1.74l-16.88-26.64,36.74-23.28,16.88,26.65c4.05,6.39,1.76,17.37-10.31,25.02ZM117.86,567.8c2.67,4.22,10.29,6.33,17.88,1.52,8.31-5.27,9.53-12.97,6.85-17.19l-10.99-17.35-24.73,15.67,10.99,17.35Z"/>
        <path class="cls-1" d="M195.59,613.74l-11.96-12.01-25.79,25.69-5.51-5.53,25.79-25.69-11.96-12.01,5.04-5.02,29.44,29.55-5.04,5.02Z"/>
        <path class="cls-1" d="M229.99,646.93c-2.91,3.97-6.17,6.04-9.58,6.35.23,5.11-2.38,11.32-7.78,18.7l-6.3-4.61c7.52-10.28,7.97-15.37,1.35-20.22l-13.43-9.83-10.11,13.8-6.43-4.71,25.75-35.17,24.83,18.18c6.11,4.48,6.68,10.71,1.7,17.51ZM213.76,642.79c4.03,2.95,7.53,2.8,9.89-.41,2.35-3.21,1.44-6.59-2.59-9.54l-15.32-11.22-7.29,9.96,15.32,11.22Z"/>
        <path class="cls-1" d="M250.21,643.37l-9.57,19.14c-4.36,8.73-3.53,15.96,6.18,20.81,9.64,4.82,15.85,1.12,20.22-7.61l9.57-19.14,6.98,3.49-9.57,19.13-.07.14c-5.69,11.21-16.73,17.04-30.28,10.27-13.62-6.81-15.64-19.17-10.09-30.45l9.64-19.27,6.98,3.49Z"/>
        <path class="cls-1" d="M296.32,710.56c-14.35-4.35-19.5-16.44-15.87-28.4,3.83-12.63,14.83-19.82,29.18-15.47,13.15,3.99,18.79,13.13,17.61,23.46l-7.47-2.27c.56-6.69-2.99-11.68-12.11-14.44-10.69-3.24-16.72,1.05-19.74,10.99-2.81,9.27-.18,16.19,10.51,19.43,7.4,2.24,13.99,1.22,17.43-3.12l7.55,2.29c-5.2,7.73-15.14,11.16-27.1,7.54Z"/>
        <path class="cls-1" d="M343.4,676.67l-2.7,19.81,25.68-16.6,9.75,1.33-26.45,17.68,22.14,25.48-9.6-1.31-20.68-22.37-1.37-.34-2.64,19.35-7.82-1.06,5.87-43.03,7.82,1.07Z"/>
        <path class="cls-1" d="M446.95,721.25l-8.33.67-7.16-14-20.63,1.66-4.83,14.97-8.33.67,14.42-44.81,13.47-1.08,21.4,41.93ZM428.01,701.06l-7.26-14.23-2.72.22-4.89,15.2,14.87-1.19Z"/>
        <path class="cls-1" d="M476.6,707.58c7.04-1.45,13.41-3.69,12.99-7.93-.38-4.74-4.97-6.32-14.27-5.2-11.55,1.45-24.49,4.13-27.03-6.02-3.11-12.43,15.69-16.74,21.85-17.88,8.16-1.48,16.16-.1,21.45,8.15l-7.58,1.9c-1.8-2.37-5.02-4.62-14.61-2.7-5.06,1.03-14.11,3.78-13.75,7.79.38,4.09,5.61,3.43,14.99,2.28,11.48-1.43,23.62-2.13,26.45,9.15,3.25,12.96-14.61,16.54-20.77,17.69-13.09,2.4-20.02-2.79-24.02-8.15l7.5-1.88c4,2.78,8.07,4.58,16.8,2.79Z"/>
        <path class="cls-1" d="M529.64,689.13c6.7-2.62,12.58-5.91,11.45-10.01-1.18-4.6-5.97-5.38-14.94-2.7-11.14,3.39-23.43,8.22-27.66-1.34-5.18-11.71,12.62-19.15,18.49-21.32,7.79-2.85,15.9-2.85,22.51,4.38l-7.14,3.16c-2.18-2.03-5.73-3.69-14.85-.17-4.81,1.87-13.26,6.12-12.22,10.01,1.07,3.96,6.11,2.42,15.15-.3,11.06-3.36,22.9-6.12,27.61,4.52,5.4,12.21-11.58,18.78-17.45,20.95-12.49,4.59-20.2.66-25.05-3.94l7.07-3.13c4.41,2.06,8.73,3.14,17.03-.1Z"/>
        <path class="cls-1" d="M556.01,630.98c12.71-8.39,25.5-4.47,32.42,6.03,6.93,10.5,5.5,23.79-7.22,32.18-12.78,8.43-25.57,4.51-32.49-5.98-6.92-10.5-5.5-23.8,7.29-32.23ZM581.92,641.31c-5.29-8.02-12.84-10.52-22.04-4.46-9.26,6.11-9.93,14.04-4.63,22.06s12.84,10.53,22.1,4.42c9.19-6.06,9.86-13.99,4.57-22.01Z"/>
        <path class="cls-1" d="M624.82,635.01c-11,10.18-24.03,8.52-32.52-.65-8.96-9.69-9.61-22.81,1.39-32.99,10.09-9.33,20.82-9.57,29.14-3.34l-5.73,5.3c-5.48-3.86-11.58-3.32-18.57,3.15-8.2,7.58-7.54,14.96-.49,22.58,6.58,7.11,13.88,8.33,22.07.75,5.67-5.25,8.12-11.45,6.11-16.61l5.79-5.35c4.04,8.39,1.98,18.7-7.19,27.18Z"/>
        <path class="cls-1" d="M620.81,575.24l32.95,28.39-5.1,5.92-32.95-28.39,5.1-5.92Z"/>
        <path class="cls-1" d="M688.36,556.02l-4.72,6.9-15.38-3.24-11.69,17.08,8.59,13.17-4.72,6.9-25.76-39.39,7.63-11.15,46.05,9.74ZM660.76,558.04l-15.62-3.31-1.54,2.26,8.74,13.36,8.42-12.31Z"/>
        <path class="cls-1" d="M676.37,497.29l-7.33,15.27,32.8,15.73-3.38,7.04-32.8-15.73-7.32,15.27-6.4-3.07,18.03-37.58,6.4,3.07Z"/>
        <path class="cls-1" d="M674.19,480.61l40.98,14.56-2.61,7.36-40.98-14.56,2.61-7.36Z"/>
        <path class="cls-1" d="M680.88,451.57c3.41-14.84,15.36-20.82,27.62-18.01,12.25,2.82,20.39,13.42,16.98,28.26-3.43,14.92-15.38,20.9-27.63,18.09-12.25-2.82-20.39-13.42-16.96-28.34ZM706.74,441.18c-9.36-2.15-16.55,1.24-19.01,11.97-2.49,10.81,2.5,17,11.86,19.15,9.36,2.15,16.55-1.25,19.03-12.05,2.47-10.73-2.52-16.92-11.88-19.08Z"/>
        <path class="cls-1" d="M688.43,417.38l34.06-25.59-32.42-1.93.46-7.79,43.41,2.58-.46,7.79-33.98,25.59,32.34,1.92-.46,7.79-43.41-2.58.46-7.79Z"/>
      </g>
      <g>
        <path class="cls-1" d="M104.94,264.42s1.93-.45,4.19-1.55c2.24-1.11,4.93-2.79,6.36-5.42.75-1.3,1.14-2.72,1.3-4.12.15-1.41.12-2.79-.01-4.02-.26-2.46-.91-4.32-.91-4.32,0,0-1.93.25-4.29,1.2-1.18.47-2.46,1.13-3.65,2-1.17.89-2.24,2-3.02,3.37-.8,1.37-1.17,2.88-1.32,4.36-.14,1.48-.08,2.91.14,4.17.42,2.53,1.2,4.32,1.2,4.32Z"/>
        <path class="cls-1" d="M94.18,274.7c2.37,1.26,4.39,1.76,4.39,1.76,0,0,.05-.12.14-.34.09-.22.22-.54.36-.94.29-.8.64-1.94.9-3.26.25-1.33.48-2.82.45-4.38-.02-1.56-.3-3.18-.91-4.71-1.25-3.07-3.83-5.31-6.11-6.76-2.26-1.45-4.23-2.12-4.23-2.12,0,0-.27.49-.61,1.33-.34.84-.77,2.03-1.13,3.42-.17.7-.34,1.44-.45,2.22-.1.78-.16,1.59-.16,2.42,0,1.65.22,3.32.92,4.9,1.36,3.15,4.07,5.19,6.44,6.46Z"/>
        <path class="cls-1" d="M100.54,285.3c-.09.88-.1,1.42-.1,1.42,0,0,2.16.4,4.98.28,1.41-.06,2.99-.24,4.54-.65,1.56-.41,3.08-1.06,4.44-2.03,1.36-.98,2.38-2.2,3.16-3.49.81-1.28,1.38-2.63,1.77-3.86.38-1.24.65-2.35.79-3.16.14-.81.18-1.31.18-1.31,0,0-2.11-.59-4.93-.71-1.41-.06-2.99,0-4.58.32-.79.16-1.59.38-2.36.69-.76.31-1.5.7-2.2,1.2-1.39.99-2.48,2.28-3.3,3.66-.8,1.39-1.35,2.86-1.74,4.21-.39,1.34-.54,2.57-.65,3.44Z"/>
        <path class="cls-1" d="M77.76,292.72c.89,1.68,2.11,3.02,3.48,4.09,1.37,1.07,2.86,1.87,4.23,2.46,2.74,1.18,5.02,1.53,5.02,1.53,0,0,.19-.55.41-1.47.21-.92.51-2.2.69-3.68.33-2.97.35-6.71-1.33-10.01-1.63-3.29-4.68-5.54-7.31-6.96-1.32-.71-2.53-1.21-3.42-1.53-.89-.32-1.45-.46-1.45-.46,0,0-.06.14-.17.4-.1.26-.24.65-.39,1.13-.31.97-.69,2.33-.97,3.91-.15.79-.24,1.64-.29,2.51-.05.88-.05,1.79.02,2.7.07.91.19,1.83.44,2.74.24.9.58,1.79,1.02,2.63Z"/>
        <path class="cls-1" d="M99.05,311.76c3.08-.41,6.89-1.42,9.66-3.82,1.36-1.2,2.41-2.63,3.16-4.11.38-.74.67-1.49.93-2.23.27-.74.48-1.46.64-2.16.34-1.38.46-2.63.56-3.52.09-.9.09-1.45.09-1.45,0,0-2.38-.46-5.51-.35-1.56.06-3.32.26-5.04.75-1.71.5-3.4,1.28-4.85,2.5-.72.61-1.37,1.29-1.91,2.02-.53.74-.99,1.52-1.37,2.32s-.7,1.62-.96,2.43c-.25.81-.42,1.61-.56,2.37-.27,1.52-.38,2.88-.4,3.86,0,.98.05,1.58.05,1.58,0,0,2.42.22,5.51-.18Z"/>
        <path class="cls-1" d="M78.23,326.43c3.15,1.01,5.7,1.16,5.7,1.16,0,0,.15-.62.3-1.66.17-1.04.35-2.48.39-4.14.02-1.66-.02-3.52-.39-5.4-.38-1.88-.99-3.78-2.07-5.53-2.18-3.48-5.69-5.68-8.74-7-3.04-1.32-5.56-1.74-5.56-1.74,0,0-.22.66-.48,1.76-.13.55-.27,1.22-.4,1.96-.12.75-.22,1.59-.29,2.48-.3,3.57.07,8.09,2.36,11.64,2.32,3.56,6.02,5.44,9.19,6.46Z"/>
        <path class="cls-1" d="M88.29,333.52c-.13,1.71-.11,3.21-.01,4.29.1,1.08.22,1.73.22,1.73,0,0,2.69-.02,6.06-.81,1.69-.39,3.52-.97,5.32-1.82,1.79-.85,3.51-1.95,4.9-3.41,2.8-2.92,3.87-6.69,4.31-9.78.19-1.55.28-2.91.27-3.9,0-.99-.07-1.59-.07-1.59,0,0-2.68-.27-6.1.15-1.71.22-3.62.61-5.47,1.33-.93.36-1.84.79-2.71,1.33-.85.53-1.67,1.16-2.4,1.91-1.47,1.48-2.52,3.28-3.17,5.12-.67,1.85-1.05,3.75-1.16,5.45Z"/>
        <path class="cls-1" d="M62.28,350.21c1.48,1.84,3.27,3.18,5.18,4.15,1.91.97,3.89,1.57,5.69,1.95,3.59.75,6.41.62,6.41.62,0,0,.1-.71.15-1.87.03-.58.03-1.28.03-2.05,0-.78-.02-1.64-.09-2.56-.07-.92-.19-1.89-.36-2.88-.16-1-.38-2.02-.68-3.04-.3-1.02-.7-2.04-1.16-3.03-.46-.99-1.03-1.95-1.72-2.85-.69-.9-1.47-1.71-2.31-2.43-.83-.72-1.7-1.35-2.61-1.9-1.81-1.11-3.72-1.91-5.47-2.48-3.49-1.14-6.32-1.34-6.32-1.34,0,0-.17.75-.34,2.01-.16,1.26-.36,3.02-.29,5.02.05,2,.24,4.25.87,6.46.6,2.21,1.54,4.38,3.03,6.22Z"/>
      </g>
      <g>
        <path class="cls-1" d="M680.38,264.42s-1.93-.45-4.19-1.55c-2.24-1.11-4.93-2.79-6.36-5.42-.75-1.3-1.14-2.72-1.3-4.12-.15-1.41-.12-2.79.01-4.02.26-2.46.91-4.32.91-4.32,0,0,1.93.25,4.29,1.2,1.18.47,2.46,1.13,3.65,2,1.17.89,2.24,2,3.02,3.37.8,1.37,1.17,2.88,1.32,4.36.14,1.48.08,2.91-.14,4.17-.42,2.53-1.2,4.32-1.2,4.32Z"/>
        <path class="cls-1" d="M691.14,274.7c-2.37,1.26-4.39,1.76-4.39,1.76,0,0-.05-.12-.14-.34-.09-.22-.22-.54-.36-.94-.29-.8-.64-1.94-.9-3.26-.25-1.33-.48-2.82-.45-4.38.02-1.56.3-3.18.91-4.71,1.25-3.07,3.83-5.31,6.11-6.76,2.26-1.45,4.23-2.12,4.23-2.12,0,0,.27.49.61,1.33.34.84.77,2.03,1.13,3.42.17.7.34,1.44.45,2.22.1.78.16,1.59.16,2.42,0,1.65-.22,3.32-.92,4.9-1.36,3.15-4.07,5.19-6.44,6.46Z"/>
        <path class="cls-1" d="M684.78,285.3c.09.88.1,1.42.1,1.42,0,0-2.16.4-4.98.28-1.41-.06-2.99-.24-4.54-.65-1.56-.41-3.08-1.06-4.44-2.03-1.36-.98-2.38-2.2-3.16-3.49-.81-1.28-1.38-2.63-1.77-3.86-.38-1.24-.65-2.35-.79-3.16-.14-.81-.18-1.31-.18-1.31,0,0,2.11-.59,4.93-.71,1.41-.06,2.99,0,4.58.32.79.16,1.59.38,2.36.69.76.31,1.5.7,2.2,1.2,1.39.99,2.48,2.28,3.3,3.66.8,1.39,1.35,2.86,1.74,4.21.39,1.34.54,2.57.65,3.44Z"/>
        <path class="cls-1" d="M707.56,292.72c-.89,1.68-2.11,3.02-3.48,4.09-1.37,1.07-2.86,1.87-4.23,2.46-2.74,1.18-5.02,1.53-5.02,1.53,0,0-.19-.55-.41-1.47-.21-.92-.51-2.2-.69-3.68-.33-2.97-.35-6.71,1.33-10.01,1.63-3.29,4.68-5.54,7.31-6.96,1.32-.71,2.53-1.21,3.42-1.53.89-.32,1.45-.46,1.45-.46,0,0,.06.14.17.4.1.26.24.65.39,1.13.31.97.69,2.33.97,3.91.15.79.24,1.64.29,2.51.05.88.05,1.79-.02,2.7-.07.91-.19,1.83-.44,2.74-.24.9-.58,1.79-1.02,2.63Z"/>
        <path class="cls-1" d="M686.27,311.76c-3.08-.41-6.89-1.42-9.66-3.82-1.36-1.2-2.41-2.63-3.16-4.11-.38-.74-.67-1.49-.93-2.23-.27-.74-.48-1.46-.64-2.16-.34-1.38-.46-2.63-.56-3.52-.09-.9-.09-1.45-.09-1.45,0,0,2.38-.46,5.51-.35,1.56.06,3.32.26,5.04.75,1.71.5,3.4,1.28,4.85,2.5.72.61,1.37,1.29,1.91,2.02.53.74.99,1.52,1.37,2.32s.7,1.62.96,2.43c.25.81.42,1.61.56,2.37.27,1.52.38,2.88.4,3.86,0,.98-.05,1.58-.05,1.58,0,0-2.42.22-5.51-.18Z"/>
        <path class="cls-1" d="M707.1,326.43c-3.15,1.01-5.7,1.16-5.7,1.16,0,0-.15-.62-.3-1.66-.17-1.04-.35-2.48-.39-4.14-.02-1.66.02-3.52.39-5.4.38-1.88.99-3.78,2.07-5.53,2.18-3.48,5.69-5.68,8.74-7,3.04-1.32,5.56-1.74,5.56-1.74,0,0,.22.66.48,1.76.13.55.27,1.22.4,1.96.12.75.22,1.59.29,2.48.3,3.57-.07,8.09-2.36,11.64-2.32,3.56-6.02,5.44-9.19,6.46Z"/>
        <path class="cls-1" d="M697.03,333.52c.13,1.71.11,3.21.01,4.29-.1,1.08-.22,1.73-.22,1.73,0,0-2.69-.02-6.06-.81-1.69-.39-3.52-.97-5.32-1.82-1.79-.85-3.51-1.95-4.9-3.41-2.8-2.92-3.87-6.69-4.31-9.78-.19-1.55-.28-2.91-.27-3.9,0-.99.07-1.59.07-1.59,0,0,2.68-.27,6.1.15,1.71.22,3.62.61,5.47,1.33.93.36,1.84.79,2.71,1.33.85.53,1.67,1.16,2.4,1.91,1.47,1.48,2.52,3.28,3.17,5.12.67,1.85,1.05,3.75,1.16,5.45Z"/>
        <path class="cls-1" d="M723.04,350.21c-1.48,1.84-3.27,3.18-5.18,4.15-1.91.97-3.89,1.57-5.69,1.95-3.59.75-6.41.62-6.41.62,0,0-.1-.71-.15-1.87-.03-.58-.03-1.28-.03-2.05,0-.78.02-1.64.09-2.56.07-.92.19-1.89.36-2.88.16-1,.38-2.02.68-3.04.3-1.02.7-2.04,1.16-3.03.46-.99,1.03-1.95,1.72-2.85.69-.9,1.47-1.71,2.31-2.43.83-.72,1.7-1.35,2.61-1.9,1.81-1.11,3.72-1.91,5.47-2.48,3.49-1.14,6.32-1.34,6.32-1.34,0,0,.17.75.34,2.01.16,1.26.36,3.02.29,5.02-.05,2-.24,4.25-.87,6.46-.6,2.21-1.54,4.38-3.03,6.22Z"/>
      </g>
      <path class="cls-1" d="M397,794C178.09,794,0,615.91,0,397S178.09,0,397,0s397,178.09,397,397-178.09,397-397,397ZM397,22.3C190.39,22.3,22.3,190.39,22.3,397s168.09,374.7,374.7,374.7,374.7-168.09,374.7-374.7S603.61,22.3,397,22.3Z"/>
      <path class="cls-1" d="M622.4,405.6c-5.36,27.77-14.62,54.12-27.89,78-15.8,28.17-37.49,53.19-63.05,73.2-.38-1.24-.81-2.59-1.3-4.07-3.92-11.75,3.92-54.84,3.92-70.51s-43.09-15.67-35.26-39.17c7.83-23.5,3.92-31.34,3.92-31.34-7.83-27.42-43.09-19.59-54.84-19.59s-19.59-19.59-31.34-35.26c-11.75-15.67-3.92-27.42,3.92-39.17,7.83-11.75,15.67-15.67,35.26-27.42,19.59-11.75,39.17,0,50.92,0s27.42,23.5,43.09,23.5c11.66,0,38.48-4.33,51.45-6.55,10,20.26,17.26,41.96,21.2,64.5,0,0,2.22-.18,2.22-.18,3.42-87.1-57.78-174.69-141.22-203.53-143.45-52.35-298.65,43.79-311.24,195.31-2.23,15.73-2.37,29.71-1.81,40.54-.12-.24-.2-.41-.2-.41,3.33,86.22,61.01,171.18,141.84,203.23,81.34,33.86,183.36,18.83,247.08-43.74,42.66-41.1,67.65-99.87,65.56-157.16l-2.22-.17ZM396.98,248.96c-7.83,21.72-17.82,22.93-28.5,28.2-10.68,5.27-10.68,20.94-22.43,20.94s-47.01-15.67-54.84-11.75c-7.83,3.92-27.42,19.59-27.42,27.42s-3.92,35.26,11.75,43.09c0,0,31.34-15.67,50.92,0,19.59,15.67,11.75,27.42,19.59,35.26,7.83,7.83,31.34,15.67,35.26,19.59,3.92,3.92,3.92,15.67,0,19.59-3.92,3.92-19.59,7.83-23.5,15.67-3.92,7.83-19.59,27.42-19.59,35.26s-11.75,23.5-23.5,35.26c-7.16,7.16-11.41,18.67-13.64,27.47-1.28,5.04-7.63,6.61-11.06,2.71-6.63-7.54-14.48-18.86-14.48-30.18,0-19.59,3.92-62.68,0-74.43-3.92-11.75-7.83,3.92-19.59-7.83-11.75-11.75-27.42-19.59-27.42-27.42s7.83-19.59,3.92-27.42c-3.92-7.83-7.83-15.67-11.75-19.59-3.63-3.63-32.66-38.17-41.42-27.02,4.09-14.21,9.53-27.99,16.26-41.06,28.57-56.46,82.31-98.49,143-114.22,1.66,8.61,9.79,45.66,27.09,49.12,19.59,3.92,39.17-.36,31.34,21.37Z"/>
    </g>
  </g>
</svg>